<?xml version="1.0" encoding="utf-8"?>
<!-- Generator: Adobe Illustrator 18.1.0, SVG Export Plug-In . SVG Version: 6.00 Build 0)  -->
<!DOCTYPE svg PUBLIC "-//W3C//DTD SVG 1.1//EN" "http://www.w3.org/Graphics/SVG/1.1/DTD/svg11.dtd">
<svg version="1.1" id="Layer_1" xmlns="http://www.w3.org/2000/svg" xmlns:xlink="http://www.w3.org/1999/xlink" x="0px" y="0px"
	 viewBox="0 0 19 19" enable-background="new 0 0 19 19" xml:space="preserve">
<g>
	<ellipse fill-rule="evenodd" clip-rule="evenodd" fill="#000002" cx="6.4" cy="8.1" rx="1" ry="1"/>
	<path fill-rule="evenodd" clip-rule="evenodd" fill="#000002" d="M9.9,16c0,0-5.4,0-6.9,0c0-2.6,4.5-2.7,5.5-4.2
		c0.7-0.9-0.4-1.3-0.7-1.4V9.1h2.1V16z"/>
	<ellipse fill-rule="evenodd" clip-rule="evenodd" fill="#000002" cx="12.5" cy="8.1" rx="1" ry="1"/>
	<path fill-rule="evenodd" clip-rule="evenodd" fill="#000002" d="M9.5,3C11.4,3,13,4.5,13,6.4v1.4c0,1.9-1.5,3.4-3.5,3.4
		C7.6,11.1,6,9.6,6,7.8V6.4C6,4.5,7.6,3,9.5,3z"/>
	<path fill-rule="evenodd" clip-rule="evenodd" fill="#000002" d="M9.1,16c0,0,5.4,0,6.9,0c0-2.6-4.5-2.7-5.5-4.2
		c-0.7-0.9,0.4-1.3,0.7-1.4V9.1H9.1V16z"/>
</g>
</svg>
