<?xml version="1.0" encoding="utf-8"?>
<!-- Generator: Adobe Illustrator 18.1.0, SVG Export Plug-In . SVG Version: 6.00 Build 0)  -->
<!DOCTYPE svg PUBLIC "-//W3C//DTD SVG 1.1//EN" "http://www.w3.org/Graphics/SVG/1.1/DTD/svg11.dtd">
<svg version="1.1" id="Layer_1" xmlns="http://www.w3.org/2000/svg" xmlns:xlink="http://www.w3.org/1999/xlink" x="0px" y="0px"
	 viewBox="0 0 19 19" enable-background="new 0 0 19 19" xml:space="preserve">
<g>
	<ellipse fill-rule="evenodd" clip-rule="evenodd" fill="#000002" cx="9.4" cy="8.1" rx="1" ry="1"/>
	<path fill-rule="evenodd" clip-rule="evenodd" fill="#000002" d="M12.9,16c0,0-5.4,0-6.9,0c0-2.6,4.5-2.7,5.5-4.2
		c0.7-0.9-0.4-1.3-0.7-1.4V9.1h2.1V16z"/>
	<ellipse fill-rule="evenodd" clip-rule="evenodd" fill="#000002" cx="15.5" cy="8.1" rx="1" ry="1"/>
	<path fill-rule="evenodd" clip-rule="evenodd" fill="#000002" d="M12.5,3C14.4,3,16,4.5,16,6.4v1.4c0,1.9-1.5,3.4-3.5,3.4
		S9,9.6,9,7.8V6.4C9,4.5,10.6,3,12.5,3z"/>
	<path fill-rule="evenodd" clip-rule="evenodd" fill="#000002" d="M12.1,16c0,0,5.4,0,6.9,0c0-2.6-4.5-2.7-5.5-4.2
		c-0.7-0.9,0.4-1.3,0.7-1.4V9.1h-2.1V16z"/>
	<ellipse fill-rule="evenodd" clip-rule="evenodd" fill="#000002" cx="2.3" cy="10.5" rx="0.7" ry="0.7"/>
	<path fill-rule="evenodd" clip-rule="evenodd" fill="#000002" d="M4.8,16c0,0-3.7,0-4.8,0c0-1.8,3.1-1.9,3.8-2.9
		c0.5-0.6-0.3-0.9-0.5-0.9v-0.9h1.4V16z"/>
	<ellipse fill-rule="evenodd" clip-rule="evenodd" fill="#000002" cx="6.6" cy="10.5" rx="0.7" ry="0.7"/>
	<path fill-rule="evenodd" clip-rule="evenodd" fill="#000002" d="M4.5,7c1.3,0,2.4,1.1,2.4,2.4v0.9c0,1.3-1.1,2.4-2.4,2.4
		s-2.4-1.1-2.4-2.4V9.4C2.1,8.1,3.2,7,4.5,7z"/>
	<path fill-rule="evenodd" clip-rule="evenodd" fill="#000002" d="M4.2,16c0,0,3.7,0,4.8,0c0-1.8-3.1-1.9-3.8-2.9
		c-0.5-0.6,0.3-0.9,0.5-0.9v-0.9H4.2V16z"/>
</g>
</svg>
