<?xml version="1.0" encoding="utf-8"?>
<!-- Generator: Adobe Illustrator 18.1.0, SVG Export Plug-In . SVG Version: 6.00 Build 0)  -->
<!DOCTYPE svg PUBLIC "-//W3C//DTD SVG 1.1//EN" "http://www.w3.org/Graphics/SVG/1.1/DTD/svg11.dtd">
<svg version="1.1" id="Layer_1" xmlns="http://www.w3.org/2000/svg" xmlns:xlink="http://www.w3.org/1999/xlink" x="0px" y="0px"
	 viewBox="0 0 19 19" enable-background="new 0 0 19 19" xml:space="preserve">
<g>
	<path fill-rule="evenodd" clip-rule="evenodd" fill="#000002" d="M0,3v13c0,0,6.1,0,7,0s2,0.6,2,2C9,18,9,5.9,9,5S8.3,3,7,3
		S0,3,0,3z"/>
	<path fill-rule="evenodd" clip-rule="evenodd" fill="#000002" d="M10,5c0-1,0.6-2,2-2s7,0,7,0v13c0,0-6.4,0-7,0c-1,0-2,0.4-2,2
		c0,0,0-0.1,0-1c0-0.9,0.6-2,2-2s6,0,6,0V4c0,0-5.3,0-6,0s-2,0.2-2,2V5z"/>
	<rect x="12" y="6" fill-rule="evenodd" clip-rule="evenodd" fill="#000002" width="4" height="1"/>
	<rect x="12" y="8" fill-rule="evenodd" clip-rule="evenodd" fill="#000002" width="4" height="1"/>
	<rect x="12" y="10" fill-rule="evenodd" clip-rule="evenodd" fill="#000002" width="4" height="1"/>
	<rect x="12" y="12" fill-rule="evenodd" clip-rule="evenodd" fill="#000002" width="4" height="1"/>
</g>
</svg>
