<?xml version="1.0" encoding="utf-8"?>
<!-- Generator: Adobe Illustrator 18.1.0, SVG Export Plug-In . SVG Version: 6.00 Build 0)  -->
<!DOCTYPE svg PUBLIC "-//W3C//DTD SVG 1.1//EN" "http://www.w3.org/Graphics/SVG/1.1/DTD/svg11.dtd">
<svg version="1.1" id="Layer_1" xmlns="http://www.w3.org/2000/svg" xmlns:xlink="http://www.w3.org/1999/xlink" x="0px" y="0px"
	 viewBox="0 0 19 19" enable-background="new 0 0 19 19" xml:space="preserve">
<polygon fill-rule="evenodd" clip-rule="evenodd" fill="#000002" points="6,16 6,8 7,8 7,15 8,15 8,8 9,8 9,15 10,15 10,8 11,8 
	11,15 12,15 12,8 13,8 13,16 "/>
<rect x="5" y="5" fill-rule="evenodd" clip-rule="evenodd" fill="#000002" width="9" height="2"/>
<path fill-rule="evenodd" clip-rule="evenodd" fill="#000002" d="M7,5c0,0,0-0.6,0-1c0-0.4,0.3-1,1-1c0.7,0,2.1,0,3,0
	c0.9,0,1,0.7,1,1c0,0.3,0,1,0,1h-1V4H8v1H7z"/>
</svg>
