<?xml version="1.0" encoding="utf-8"?>
<!-- Generator: Adobe Illustrator 18.1.0, SVG Export Plug-In . SVG Version: 6.00 Build 0)  -->
<!DOCTYPE svg PUBLIC "-//W3C//DTD SVG 1.1//EN" "http://www.w3.org/Graphics/SVG/1.1/DTD/svg11.dtd">
<svg version="1.1" id="Layer_1" xmlns="http://www.w3.org/2000/svg" xmlns:xlink="http://www.w3.org/1999/xlink" x="0px" y="0px"
	 viewBox="0 0 19 19" enable-background="new 0 0 19 19" xml:space="preserve">
<g>
	<path fill-rule="evenodd" clip-rule="evenodd" fill="#000002" d="M9.5,5C7,5,5,7,5,9.5C5,12,7,14,9.5,14C12,14,14,12,14,9.5
		C14,7,12,5,9.5,5z M12.2,9.5c0,1.5-1.2,2.7-2.7,2.7C8,12.2,6.8,11,6.8,9.5C6.8,8,8,6.8,9.5,6.8C11,6.8,12.2,8,12.2,9.5z"/>
	<rect x="8.4" y="3" fill-rule="evenodd" clip-rule="evenodd" fill="#000002" width="2.1" height="3.2"/>
	<rect x="8.4" y="12.8" fill-rule="evenodd" clip-rule="evenodd" fill="#000002" width="2.1" height="3.2"/>
	<rect x="3" y="8.4" fill-rule="evenodd" clip-rule="evenodd" fill="#000002" width="3.2" height="2.1"/>
	<rect x="12.8" y="8.4" fill-rule="evenodd" clip-rule="evenodd" fill="#000002" width="3.2" height="2.1"/>
	
		<rect x="4.9" y="4.4" transform="matrix(0.7071 -0.7071 0.7071 0.7071 -2.4936 6.0194)" fill-rule="evenodd" clip-rule="evenodd" fill="#000002" width="2.1" height="3.2"/>
	
		<rect x="11.9" y="11.4" transform="matrix(0.7072 -0.7071 0.7071 0.7072 -5.3771 12.9796)" fill-rule="evenodd" clip-rule="evenodd" fill="#000002" width="2.1" height="3.2"/>
	
		<rect x="4.9" y="11.4" transform="matrix(-0.707 -0.7072 0.7072 -0.707 1.0955 26.4157)" fill-rule="evenodd" clip-rule="evenodd" fill="#000002" width="2.1" height="3.2"/>
	
		<rect x="11.9" y="4.4" transform="matrix(-0.7071 -0.7072 0.7072 -0.7071 17.902 19.4552)" fill-rule="evenodd" clip-rule="evenodd" fill="#000002" width="2.1" height="3.2"/>
</g>
</svg>
