<?xml version="1.0" encoding="utf-8"?>
<!-- Generator: Adobe Illustrator 18.0.0, SVG Export Plug-In . SVG Version: 6.00 Build 0)  -->
<!DOCTYPE svg PUBLIC "-//W3C//DTD SVG 1.1//EN" "http://www.w3.org/Graphics/SVG/1.1/DTD/svg11.dtd">
<svg version="1.1" id="Layer_1" xmlns="http://www.w3.org/2000/svg" xmlns:xlink="http://www.w3.org/1999/xlink" x="0px" y="0px"
	 viewBox="0 0 21 21" enable-background="new 0 0 21 21" xml:space="preserve">
<path fill="#50AC9F" d="M2,0h17c1.1,0,2,0.9,2,2v17c0,1.1-0.9,2-2,2H2c-1.1,0-2-0.9-2-2V2C0,0.9,0.9,0,2,0z"/>
<path fill="#FFFFFF" d="M2,1h17c0.6,0,1,0.4,1,1v17c0,0.6-0.4,1-1,1H2c-0.6,0-1-0.4-1-1V2C1,1.4,1.4,1,2,1z"/>
<path fill="#50AC9F" d="M5,4h11c0.6,0,1,0.4,1,1v11c0,0.6-0.4,1-1,1H5c-0.6,0-1-0.4-1-1V5C4,4.4,4.4,4,5,4z"/>
<path fill="#FFFFFF" d="M5,8l2-2l9,9c0,0-0.2,1-1,1s-8.6,0-9,0c-0.4,0-1-0.4-1-1S5,8,5,8z"/>
<polygon fill="#FFFFFF" points="12,10 14,8 16,10 16,14 "/>
</svg>
