<?xml version="1.0" encoding="utf-8"?>
<!-- Generator: Adobe Illustrator 18.0.0, SVG Export Plug-In . SVG Version: 6.00 Build 0)  -->
<!DOCTYPE svg PUBLIC "-//W3C//DTD SVG 1.1//EN" "http://www.w3.org/Graphics/SVG/1.1/DTD/svg11.dtd">
<svg version="1.1" id="Layer_1" xmlns="http://www.w3.org/2000/svg" xmlns:xlink="http://www.w3.org/1999/xlink" x="0px" y="0px"
	 viewBox="0 0 21 21" enable-background="new 0 0 21 21" xml:space="preserve">
<path fill="#646464" d="M2,0h17c1.1,0,2,0.9,2,2v17c0,1.1-0.9,2-2,2H2c-1.1,0-2-0.9-2-2V2C0,0.9,0.9,0,2,0z"/>
<path fill="#FFFFFF" d="M2,1h17c0.6,0,1,0.4,1,1v17c0,0.6-0.4,1-1,1H2c-0.6,0-1-0.4-1-1V2C1,1.4,1.4,1,2,1z"/>
<path fill="#646464" d="M0.5,10h20c0.3,0,0.5,0.2,0.5,0.5S20.8,11,20.5,11h-20C0.2,11,0,10.8,0,10.5S0.2,10,0.5,10z"/>
<path fill="#646464" d="M9,3h3c0.6,0,1,0.4,1,1s-0.4,1-1,1H9C8.4,5,8,4.6,8,4S8.4,3,9,3z"/>
<path fill="#646464" d="M9,13h3c0.6,0,1,0.4,1,1s-0.4,1-1,1H9c-0.6,0-1-0.4-1-1S8.4,13,9,13z"/>
</svg>
