<?xml version="1.0" encoding="utf-8"?>
<!-- Generator: Adobe Illustrator 18.0.0, SVG Export Plug-In . SVG Version: 6.00 Build 0)  -->
<!DOCTYPE svg PUBLIC "-//W3C//DTD SVG 1.1//EN" "http://www.w3.org/Graphics/SVG/1.1/DTD/svg11.dtd">
<svg version="1.1" id="Layer_1" xmlns="http://www.w3.org/2000/svg" xmlns:xlink="http://www.w3.org/1999/xlink" x="0px" y="0px"
	 viewBox="0 0 21 21" enable-background="new 0 0 21 21" xml:space="preserve">
<g>
	<path fill="#646464" d="M2,1c0,0,2,0,3,0c2.4,0,2.6,0.6,3.4,1.4c0.3,0.3,0.7,0.7,1.1,1.1C10.8,4.8,12,5,13,5c2.6,0,6,0,6,0
		c1.1,0,2,0.9,2,2v11c0,1.1-0.9,2-2,2H2c-1.1,0-2-0.9-2-2V3C0,1.9,0.9,1,2,1z"/>
	<path fill="#FFFFFF" d="M2,6h17c0.6,0,1,0.4,1,1v11c0,0.6-0.4,1-1,1H2c-0.6,0-1-0.4-1-1V7C1,6.4,1.4,6,2,6z"/>
	<circle fill="#646464" cx="7.5" cy="11.5" r="2.5"/>
	<circle fill="#646464" cx="13.5" cy="11.5" r="2.5"/>
	<polygon fill="#646464" points="7.5,13 11,16 4,16 	"/>
	<polygon fill="#646464" points="13.5,13 17,16 10,16 	"/>
</g>
</svg>
