<?xml version="1.0" encoding="utf-8"?>
<!-- Generator: Adobe Illustrator 18.0.0, SVG Export Plug-In . SVG Version: 6.00 Build 0)  -->
<!DOCTYPE svg PUBLIC "-//W3C//DTD SVG 1.1//EN" "http://www.w3.org/Graphics/SVG/1.1/DTD/svg11.dtd">
<svg version="1.1" id="Layer_1" xmlns="http://www.w3.org/2000/svg" xmlns:xlink="http://www.w3.org/1999/xlink" x="0px" y="0px"
	 viewBox="0 0 21 21" enable-background="new 0 0 21 21" xml:space="preserve">
<path fill="#B8589D" d="M2,0h17c1.1,0,2,0.9,2,2v17c0,1.1-0.9,2-2,2H2c-1.1,0-2-0.9-2-2V2C0,0.9,0.9,0,2,0z"/>
<path fill="#FFFFFF" d="M2,1h17c0.6,0,1,0.4,1,1v17c0,0.6-0.4,1-1,1H2c-0.6,0-1-0.4-1-1V2C1,1.4,1.4,1,2,1z"/>
<path fill="#B8589D" d="M8,8H7C6.4,8,6,8.4,6,9v3c0,0.6,0.4,1,1,1h1c0.6,0,1-0.4,1-1V9C9,8.4,8.6,8,8,8z"/>
<path fill="#B8589D" d="M12.5,6.4l-1.9,1.2C10.2,7.8,10,8.4,10,9v3c0,0.6,0.2,1.2,0.6,1.4l1.9,1.3c0.8,0.5,1.5,0.2,1.5-0.8V7.3
	C14,6.2,13.2,5.9,12.5,6.4z"/>
</svg>
