<?xml version="1.0" encoding="utf-8"?>
<!-- Generator: Adobe Illustrator 18.0.0, SVG Export Plug-In . SVG Version: 6.00 Build 0)  -->
<!DOCTYPE svg PUBLIC "-//W3C//DTD SVG 1.1//EN" "http://www.w3.org/Graphics/SVG/1.1/DTD/svg11.dtd">
<svg version="1.1" id="Layer_1" xmlns="http://www.w3.org/2000/svg" xmlns:xlink="http://www.w3.org/1999/xlink" x="0px" y="0px"
	 viewBox="0 0 21 21" enable-background="new 0 0 21 21" xml:space="preserve">
<path fill="#88589F" d="M0.5,0C0.8,0,1,0.2,1,0.5v20C1,20.8,0.8,21,0.5,21S0,20.8,0,20.5v-20C0,0.2,0.2,0,0.5,0z"/>
<path fill="#88589F" d="M20.5,0C20.8,0,21,0.2,21,0.5v20c0,0.3-0.2,0.5-0.5,0.5S20,20.8,20,20.5v-20C20,0.2,20.2,0,20.5,0z"/>
<path fill="#88589F" d="M6,0h9c1.1,0,2,0.9,2,2v17c0,1.1-0.9,2-2,2H6c-1.1,0-2-0.9-2-2V2C4,0.9,4.9,0,6,0z"/>
<path fill="#FFFFFF" d="M6,1h9c0.6,0,1,0.4,1,1v7c0,0.6-0.4,1-1,1H6c-0.6,0-1-0.4-1-1V2C5,1.4,5.4,1,6,1z"/>
<path fill="#FFFFFF" d="M6,11h9c0.6,0,1,0.4,1,1v7c0,0.6-0.4,1-1,1H6c-0.6,0-1-0.4-1-1v-7C5,11.4,5.4,11,6,11z"/>
<path fill="#88589F" d="M0.5,1h4C4.8,1,5,1.2,5,1.5S4.8,2,4.5,2h-4C0.2,2,0,1.8,0,1.5S0.2,1,0.5,1z"/>
<path fill="#88589F" d="M16.5,1h4C20.8,1,21,1.2,21,1.5S20.8,2,20.5,2h-4C16.2,2,16,1.8,16,1.5S16.2,1,16.5,1z"/>
<path fill="#88589F" d="M0.5,4h4C4.8,4,5,4.2,5,4.5S4.8,5,4.5,5h-4C0.2,5,0,4.8,0,4.5S0.2,4,0.5,4z"/>
<path fill="#88589F" d="M16.5,4h4C20.8,4,21,4.2,21,4.5S20.8,5,20.5,5h-4C16.2,5,16,4.8,16,4.5S16.2,4,16.5,4z"/>
<path fill="#88589F" d="M0.5,7h4C4.8,7,5,7.2,5,7.5S4.8,8,4.5,8h-4C0.2,8,0,7.8,0,7.5S0.2,7,0.5,7z"/>
<path fill="#88589F" d="M16.5,7h4C20.8,7,21,7.2,21,7.5S20.8,8,20.5,8h-4C16.2,8,16,7.8,16,7.5S16.2,7,16.5,7z"/>
<path fill="#88589F" d="M0.5,10h4C4.8,10,5,10.2,5,10.5S4.8,11,4.5,11h-4C0.2,11,0,10.8,0,10.5S0.2,10,0.5,10z"/>
<path fill="#88589F" d="M16.5,10h4c0.3,0,0.5,0.2,0.5,0.5S20.8,11,20.5,11h-4c-0.3,0-0.5-0.2-0.5-0.5S16.2,10,16.5,10z"/>
<path fill="#88589F" d="M0.5,13h4C4.8,13,5,13.2,5,13.5S4.8,14,4.5,14h-4C0.2,14,0,13.8,0,13.5S0.2,13,0.5,13z"/>
<path fill="#88589F" d="M16.5,13h4c0.3,0,0.5,0.2,0.5,0.5S20.8,14,20.5,14h-4c-0.3,0-0.5-0.2-0.5-0.5S16.2,13,16.5,13z"/>
<path fill="#88589F" d="M0.5,16h4C4.8,16,5,16.2,5,16.5S4.8,17,4.5,17h-4C0.2,17,0,16.8,0,16.5S0.2,16,0.5,16z"/>
<path fill="#88589F" d="M16.5,16h4c0.3,0,0.5,0.2,0.5,0.5S20.8,17,20.5,17h-4c-0.3,0-0.5-0.2-0.5-0.5S16.2,16,16.5,16z"/>
<path fill="#88589F" d="M0.5,19h4C4.8,19,5,19.2,5,19.5S4.8,20,4.5,20h-4C0.2,20,0,19.8,0,19.5S0.2,19,0.5,19z"/>
<path fill="#88589F" d="M16.5,19h4c0.3,0,0.5,0.2,0.5,0.5S20.8,20,20.5,20h-4c-0.3,0-0.5-0.2-0.5-0.5S16.2,19,16.5,19z"/>
</svg>
