<?xml version="1.0" encoding="utf-8"?>
<!-- Generator: Adobe Illustrator 18.0.0, SVG Export Plug-In . SVG Version: 6.00 Build 0)  -->
<!DOCTYPE svg PUBLIC "-//W3C//DTD SVG 1.1//EN" "http://www.w3.org/Graphics/SVG/1.1/DTD/svg11.dtd">
<svg version="1.1" id="Layer_1" xmlns="http://www.w3.org/2000/svg" xmlns:xlink="http://www.w3.org/1999/xlink" x="0px" y="0px"
	 viewBox="0 0 21 21" enable-background="new 0 0 21 21" xml:space="preserve">
<path fill="#4A84C5" d="M2,0h12l7,7v12c0,1.1-0.9,2-2,2H2c-1.1,0-2-0.9-2-2V2C0,0.9,0.9,0,2,0z"/>
<path fill="#FFFFFF" d="M2,1c0,0,8.1,0,11,0c0.7,0,1,0.4,1,1c0,0.8,0,2,0,3c0,1.2,1,2,2,2s2.2,0,3,0c0.7,0,1,0.4,1,1
	c0,2.9,0,11,0,11c0,0.6-0.4,1-1,1H2c-0.6,0-1-0.4-1-1V2C1,1.4,1.5,1,2,1z"/>
<path fill="#4A84C5" d="M4.5,4h8C12.8,4,13,4.2,13,4.5S12.8,5,12.5,5h-8C4.2,5,4,4.8,4,4.5S4.2,4,4.5,4z"/>
<path fill="#4A84C5" d="M4.5,6h8C12.8,6,13,6.2,13,6.5S12.8,7,12.5,7h-8C4.2,7,4,6.8,4,6.5S4.2,6,4.5,6z"/>
<path fill="#4A84C5" d="M4.5,8h12C16.8,8,17,8.2,17,8.5S16.8,9,16.5,9h-12C4.2,9,4,8.8,4,8.5S4.2,8,4.5,8z"/>
<path fill="#4A84C5" d="M4.5,10h12c0.3,0,0.5,0.2,0.5,0.5S16.8,11,16.5,11h-12C4.2,11,4,10.8,4,10.5S4.2,10,4.5,10z"/>
<path fill="#4A84C5" d="M4.5,12h12c0.3,0,0.5,0.2,0.5,0.5S16.8,13,16.5,13h-12C4.2,13,4,12.8,4,12.5S4.2,12,4.5,12z"/>
<path fill="#4A84C5" d="M4.5,14h12c0.3,0,0.5,0.2,0.5,0.5S16.8,15,16.5,15h-12C4.2,15,4,14.8,4,14.5S4.2,14,4.5,14z"/>
<path fill="#4A84C5" d="M4.5,16h12c0.3,0,0.5,0.2,0.5,0.5S16.8,17,16.5,17h-12C4.2,17,4,16.8,4,16.5S4.2,16,4.5,16z"/>
</svg>
