<?xml version="1.0" encoding="utf-8"?>
<!-- Generator: Adobe Illustrator 18.0.0, SVG Export Plug-In . SVG Version: 6.00 Build 0)  -->
<!DOCTYPE svg PUBLIC "-//W3C//DTD SVG 1.1//EN" "http://www.w3.org/Graphics/SVG/1.1/DTD/svg11.dtd">
<svg version="1.1" id="Layer_1" xmlns="http://www.w3.org/2000/svg" xmlns:xlink="http://www.w3.org/1999/xlink" x="0px" y="0px"
	 viewBox="0 0 21 21" enable-background="new 0 0 21 21" xml:space="preserve">
<path fill="#D24A43" d="M2,0h12l7,7v12c0,1.1-0.9,2-2,2H2c-1.1,0-2-0.9-2-2V2C0,0.9,0.9,0,2,0z"/>
<g>
	<path fill="#FFFFFF" d="M2,1c0,0,8.1,0,11,0c0.7,0,1,0.4,1,1c0,0.8,0,2,0,3c0,1.2,1,2,2,2s2.2,0,3,0c0.7,0,1,0.4,1,1c0,2.9,0,4,0,4
		H1V2C1,1.4,1.4,1,2,1z"/>
	<path fill-rule="evenodd" clip-rule="evenodd" fill="#FFFFFF" d="M2,18h1v1H2V18z M4,14h3v1H5v2h2v1H5v1H4V14z M7,15h1v2H7V15z
		 M9,14h3v1l-2,0v3l2-0.1V19H9V14z M12,15h1v3h-1V15z M14,14h4v1h-3v1h2v1h-2v2h-1V14z"/>
</g>
</svg>
