<?xml version="1.0" encoding="utf-8"?>
<!-- Generator: Adobe Illustrator 18.0.0, SVG Export Plug-In . SVG Version: 6.00 Build 0)  -->
<!DOCTYPE svg PUBLIC "-//W3C//DTD SVG 1.1//EN" "http://www.w3.org/Graphics/SVG/1.1/DTD/svg11.dtd">
<svg version="1.1" id="Layer_1" xmlns="http://www.w3.org/2000/svg" xmlns:xlink="http://www.w3.org/1999/xlink" x="0px" y="0px"
	 viewBox="0 0 21 21" enable-background="new 0 0 21 21" xml:space="preserve">
<g>
	<path fill-rule="evenodd" clip-rule="evenodd" fill="#0C0E0F" d="M2,0h12l7,7v12c0,1.1-0.9,2-2,2H2c-1.1,0-2-0.9-2-2V2
		C0,0.9,0.9,0,2,0z M2,1c0,0,8.1,0,11,0c0.7,0,1,0.4,1,1c0,0.8,0,2,0,3c0,1.2,1,2,2,2c1,0,2.2,0,3,0c0.7,0,1,0.4,1,1
		c0,2.9,0,11,0,11c0,0.6-0.4,1-1,1H2c-0.6,0-1-0.4-1-1V2C1,1.4,1.4,1,2,1z"/>
	<path fill-rule="evenodd" clip-rule="evenodd" fill="#0C0E0F" d="M4.5,4h8C12.8,4,13,4.2,13,4.5C13,4.8,12.8,5,12.5,5h-8
		C4.2,5,4,4.8,4,4.5C4,4.2,4.2,4,4.5,4z"/>
	<path fill-rule="evenodd" clip-rule="evenodd" fill="#0C0E0F" d="M4.5,8h8C12.8,8,13,8.2,13,8.5C13,8.8,12.8,9,12.5,9h-8
		C4.2,9,4,8.8,4,8.5C4,8.2,4.2,8,4.5,8z"/>
	<path fill-rule="evenodd" clip-rule="evenodd" fill="#0C0E0F" d="M4.5,12h12c0.3,0,0.5,0.2,0.5,0.5c0,0.3-0.2,0.5-0.5,0.5h-12
		C4.2,13,4,12.8,4,12.5C4,12.2,4.2,12,4.5,12z"/>
	<path fill-rule="evenodd" clip-rule="evenodd" fill="#0C0E0F" d="M4.5,16h12c0.3,0,0.5,0.2,0.5,0.5c0,0.3-0.2,0.5-0.5,0.5h-12
		C4.2,17,4,16.8,4,16.5C4,16.2,4.2,16,4.5,16z"/>
	<path fill-rule="evenodd" clip-rule="evenodd" fill="#0C0E0F" d="M12.5,8C12.8,8,13,8.2,13,8.5v8c0,0.3-0.2,0.5-0.5,0.5
		c-0.3,0-0.5-0.2-0.5-0.5v-8C12,8.2,12.2,8,12.5,8z"/>
	<path fill-rule="evenodd" clip-rule="evenodd" fill="#0C0E0F" d="M16.5,8C16.8,8,17,8.2,17,8.5v8c0,0.3-0.2,0.5-0.5,0.5
		S16,16.8,16,16.5v-8C16,8.2,16.2,8,16.5,8z"/>
	<path fill-rule="evenodd" clip-rule="evenodd" fill="#0C0E0F" d="M4.5,4C4.8,4,5,4.2,5,4.5v12C5,16.8,4.8,17,4.5,17
		C4.2,17,4,16.8,4,16.5v-12C4,4.2,4.2,4,4.5,4z"/>
	<path fill-rule="evenodd" clip-rule="evenodd" fill="#0C0E0F" d="M8.5,4C8.8,4,9,4.2,9,4.5v12C9,16.8,8.8,17,8.5,17
		C8.2,17,8,16.8,8,16.5v-12C8,4.2,8.2,4,8.5,4z"/>
</g>
</svg>
